<?xml version="1.0" ?><svg id="outline" viewBox="0 0 340 340" xmlns="http://www.w3.org/2000/svg"><title/><path d="M312.379,242.072a467.341,467.341,0,0,0-61-80.064,3.458,3.458,0,0,0-2.065-1.035,250.806,250.806,0,0,1-32.189-14.615l-.015-.008-.013-.008c-2.875-1.573-5.7-3.051-8.432-4.413a56.43,56.43,0,0,0,3.249-21.585,3.461,3.461,0,0,0-6.917.281c.33,8.123-1.035,20.057-9.411,30.777a3.256,3.256,0,0,1-2.4,1.3c-1.871.086-4.4-2.881-6.35-2.823a3.373,3.373,0,0,0-2.53,1.317,49.283,49.283,0,0,1-7.171,7.162,5.832,5.832,0,0,1-6.6.426c-6.493-3.932-17.188-12.721-19.238-28.676,2.455-.147,8.728-.89,13.3-4.749,5.553,4.685,13.617,4.788,14.285,4.788h.03a16.148,16.148,0,0,0,12.066-4.8,19.425,19.425,0,0,0,4.218-7c6.183-2.7,10.752-6.585,13.562-11.58.013-.023.018-.047.031-.07a3.657,3.657,0,0,0,.151-.346c.038-.1.082-.189.111-.287s.05-.223.072-.335.048-.215.059-.323,0-.218,0-.328,0-.23-.006-.344-.035-.2-.054-.3a3.4,3.4,0,0,0-.082-.373c-.008-.024-.009-.049-.017-.073-.148-.452-3.72-11.153-10.382-18.764a42.6,42.6,0,0,1-5.369-8.149c11.355-.169,23.165-.629,33.878-1.632a67.261,67.261,0,0,1,4.167,24.1c-.019.9-.4,22.287,5.019,43.1.578,2.222,1.068,4.466,1.455,6.672a3.462,3.462,0,0,0,6.819-1.2c-.42-2.387-.95-4.815-1.574-7.216-5.169-19.861-4.8-41-4.8-41.287a75.533,75.533,0,0,0-4-24.936,136.434,136.434,0,0,0,14.108-2.42,10.989,10.989,0,0,0,3.352-19.975,60.01,60.01,0,0,0-7.643-4.059c17.741-13.745,17.391-36.252,17.382-36.56a3.462,3.462,0,0,0-5.916-2.343,20.567,20.567,0,0,1-7.039,4.316c-2.96,1.176-8.575,1.848-11.783,2.289-11.459,1.573-21.975,6.784-29.337,15.475-1.453-1.132-2.864-2.31-4.205-3.536-3.925-3.588-7.5-7.1-10.63-10.453a10.351,10.351,0,0,0-16.3,1.461,179.316,179.316,0,0,0-12.332,22.442,2.037,2.037,0,0,1-3.518.367A172.931,172.931,0,0,1,148.764,23.39a8.979,8.979,0,0,0-7.855-4.752h-.063a8.951,8.951,0,0,0-7.833,4.625,56.345,56.345,0,0,0-6.992,20.61,54.568,54.568,0,0,1-3.83,15.626,10.753,10.753,0,0,0-.167,8.4,10.509,10.509,0,0,0,5.758,5.853c4.459,1.861,18.282,2.91,18.282,2.91l.1,12.232c0,.019,0,.038,0,.057l.081,9.54a3.462,3.462,0,0,0,3.462,3.432h.03a3.461,3.461,0,0,0,3.432-3.491l-.043-4.981,2.535.617a3.461,3.461,0,1,0,1.639-6.726l-4.235-1.032-.081-9.522s23.015.661,32.608.357a55.072,55.072,0,0,0,7.843,12.634c4.384,5.008,7.324,11.895,8.473,14.885a19.158,19.158,0,0,1-5.036,4.909c.03-.733.02-1.2.018-1.281a3.474,3.474,0,0,0-5.752-2.5c-.429.373-4.331,3.562-8.957,1.081-7.894-4.236-14.123-2.2-17.409-.362-3.858-2.51-10.343-4.078-17.209,1.649-5.316,4.433-9.735-.158-10.552-1.107a3.462,3.462,0,0,0-6.111,2.4c.3,6.051,3.578,16.66,13.335,19.8a44.131,44.131,0,0,0,9.456,23.88s-17.239,14.814-18.394,17.517c-1.81,4.232-11.381,38.871-19.294,60.828l-3.855-5.742a11.211,11.211,0,0,0,1.618-11.667,74.875,74.875,0,0,0-7.015-12.646A11.1,11.1,0,0,0,95.887,196.8c-5.5-6.956-12.1-10.618-18.94-10.759-4.247-7.648-11.2-13.974-20.768-18.834-.446-.218-10.885-5.461-7.563-15.15a14.857,14.857,0,0,1,14.136-10.285c.1,0,.232,0,.331,0a10.98,10.98,0,0,1,9.9,6.319,3.461,3.461,0,0,0,6.405-.526,18.654,18.654,0,0,0-8.693-21.352A27.193,27.193,0,0,0,54,122.468c-10.7,1.093-18.9,5.975-24.387,14.513a30.879,30.879,0,0,0-4.452,20.438c1.008,8.2,4.765,19.344,16.942,25.825a37.32,37.32,0,0,1,5.8,3.7,69.06,69.06,0,0,1,9.635,9.181c-5.986,8.74-2.842,19.488-.5,25a11.163,11.163,0,0,0-1.29,11.07A48.038,48.038,0,0,0,64.16,245.27a11.185,11.185,0,0,0,11.3,3.2c8.256,14,22.63,36.791,32.656,44.023a22.365,22.365,0,0,0,13.24,4.362,23.763,23.763,0,0,0,4.463-.438c-4.027,17.987-6.506,31.006-6.54,31.184a3.464,3.464,0,0,0,3.4,4.107h25.425a11.229,11.229,0,0,0,11.228-11.536q-.286-10.446-.3-21.356h61.256c.448,9.74.8,17.94,1,22.873a10.432,10.432,0,0,0,10.45,10.019h14.573a11.688,11.688,0,0,0,11.663-10.546l1.24-12.288c.5-2.152,3.019-3.619,3.019-3.619a10.818,10.818,0,0,0,6.142,3.7,10.926,10.926,0,0,0,8.876-2.052,103.008,103.008,0,0,0,9.36-8.17,11.814,11.814,0,0,0,1.721-14.7A171.423,171.423,0,0,0,310.3,264.137,18.519,18.519,0,0,0,312.379,242.072ZM153.916,69.88c-3.645-.074-6.689-.136-8.95-.157-6-.053-10.888-.848-14.518-2.362a3.643,3.643,0,0,1-1.993-2.029,3.881,3.881,0,0,1,.068-3.034A61.834,61.834,0,0,0,132.9,44.676a50.224,50.224,0,0,1,6.174-18.062,2.036,2.036,0,0,1,3.588.042,179.608,179.608,0,0,0,12.109,19.057,8.959,8.959,0,0,0,15.468-1.6,172.327,172.327,0,0,1,11.84-21.526,3.332,3.332,0,0,1,2.546-1.552,3.453,3.453,0,0,1,2.859,1.1c3.253,3.481,6.959,7.126,11.017,10.836,1.532,1.4,3.143,2.743,4.8,4.028a45.223,45.223,0,0,0-2.817,5.391c-2.258,5.14-3.907,8.67-4.576,10.084a84.462,84.462,0,0,0-6.554,6.075,3.462,3.462,0,0,0,5.048,4.739,108.438,108.438,0,0,1,36.9-23.94,3.462,3.462,0,0,0-2.426-6.485,108.44,108.44,0,0,0-21.419,10.987c5.723-11.779,17.124-19.169,29.916-21.037,4.59-.67,10.045-1.3,13.677-2.746q1.484-.591,2.821-1.26c-1.906,10.539-9.266,29.555-37.466,32.51a3.462,3.462,0,1,0,.721,6.886,56.927,56.927,0,0,0,19.706-5.453A56.794,56.794,0,0,1,248,58.115a4.017,4.017,0,0,1,1.839,4.135,3.966,3.966,0,0,1-3.058,3.258C222.224,71.276,176.088,70.334,153.916,69.88ZM174.43,223.8c3.073-3.377,7.947-7.994,13.711-10.817a5.507,5.507,0,0,1,2.427-.562,5.77,5.77,0,0,1,4.421,2.1,82.381,82.381,0,0,1,7.869,11.045,5.669,5.669,0,0,1-.53,6.4,47.88,47.88,0,0,1-12.7,10.911,5.707,5.707,0,0,1-6.972-1.047,85.993,85.993,0,0,1-8.779-11.061A5.678,5.678,0,0,1,174.43,223.8Zm32.754,13.14c4.353,5.8,8.05,10.492,10.59,13.649.483,7.893.948,16.369,1.376,24.7a238.7,238.7,0,0,1-25.71-26.636A54.729,54.729,0,0,0,207.184,236.94Zm3.258-7.214a12.559,12.559,0,0,0-1.586-7.62h0a86.81,86.81,0,0,0-8.55-12.02,12.725,12.725,0,0,0-6.5-4.155l-1.17-1.77c-1.835-2.773-3.815-5.775-5.839-8.926a39.9,39.9,0,0,0,6.416-7.512c8.566-13.608,12.9-28.5,15-38.261,1.251.644,2.522,1.318,3.8,2.006.2,9.165,1.176,47.369,3.642,71.046.435,4.18.879,9.638,1.317,15.866C215,235.815,212.8,232.914,210.442,229.726Zm-70.673-113.15c3.706.935,8.031.409,12.234-3.1,5.425-4.525,9.361-1.015,10.07-.293a3.5,3.5,0,0,0,4.867.186c.489-.435,4.973-4.15,11.973-.395a13.993,13.993,0,0,0,10.31,1.335A13.868,13.868,0,0,1,186,120.539a9.373,9.373,0,0,1-7.091,2.685c-2.314,0-8.868-.884-11.368-4.9a3.463,3.463,0,0,0-5.877,0c-2.5,4.015-9.054,4.9-11.377,4.9A11.1,11.1,0,0,1,139.769,116.576Zm18.622,41.642a51.65,51.65,0,0,0,8.558,6.489,12.642,12.642,0,0,0,6.557,1.82,12.792,12.792,0,0,0,7.911-2.73,52.821,52.821,0,0,0,6.024-5.649,10.615,10.615,0,0,0,6.378,1.449,10.3,10.3,0,0,0,5.161-1.947,106.985,106.985,0,0,1-11.618,26.377,33.88,33.88,0,0,1-4.317,5.246c-3.323-5.414-6.633-11.2-9.553-17.2a3.462,3.462,0,1,0-6.224,3.033,224.508,224.508,0,0,0,12.091,21.339l.007.012,0,0c2.235,3.54,4.421,6.868,6.476,9.976-7.1,4.3-11.332,7.33-14.8,10.875a274.461,274.461,0,0,1-23.835-48.549ZM89.336,199.757c-7.242,4.258-18.013,10.768-26.706,16.752-2.423-6.565-3.422-15.576,5.7-21.062C77.676,189.833,84.987,194.853,89.336,199.757ZM52.214,181.525a44.033,44.033,0,0,0-6.857-4.393c-9.548-5.082-12.515-13.984-13.323-20.558a23.934,23.934,0,0,1,3.407-15.852c4.285-6.675,10.766-10.5,19.263-11.366a20.321,20.321,0,0,1,12.458,2.81,12.1,12.1,0,0,1,4.89,5.093A18.288,18.288,0,0,0,62.9,134.85a21.762,21.762,0,0,0-20.837,14.962c-4.262,12.43,5.4,20.893,11.034,23.6,7.308,3.715,12.831,8.362,16.478,13.837a25.759,25.759,0,0,0-4.813,2.269,27.052,27.052,0,0,0-2.391,1.627A77.289,77.289,0,0,0,52.214,181.525ZM69.262,240.59a41.076,41.076,0,0,1-7.168-11.161,4.212,4.212,0,0,1,1.4-5.074c9.922-7.132,24.312-15.709,32.006-20.186a4.21,4.21,0,0,1,5.592,1.238,68.865,68.865,0,0,1,6.348,11.47,4.254,4.254,0,0,1-1.644,5.341l-31.182,19.14A4.259,4.259,0,0,1,69.262,240.59ZM151.2,323.483a4.281,4.281,0,0,1-3.091,1.3H126.885c1.619-8.138,5.569-27.386,10.839-48.81,3.4-13.83,5.158-35.861,5.222-65.481a3.462,3.462,0,0,0-3.454-3.469h-.007a3.462,3.462,0,0,0-3.462,3.455c-.062,28.658-1.8,50.735-5.023,63.841-1.223,4.975-2.374,9.828-3.444,14.459-5.611,2.053-10.782,1.422-15.39-1.9-6.564-4.736-17.942-20.249-30.591-41.671l25.01-15.352,7.427,11.063c.008.013.02.021.029.034s.018.035.029.052l5.8,8.1a3.462,3.462,0,1,0,5.63-4.029l-4.707-6.577c7.346-19.234,18.649-57.378,20.811-64.73l.046-.043a269.513,269.513,0,0,0,14.924,32.353c-.531,7.212-1.735,18.332-1.747,18.448,0,.044-.009.087-.012.131-1.271,18.035-2.09,35.542-2.464,52.4l0,.016v.011c-.331,14.972-.313,29.434.068,43.279A4.273,4.273,0,0,1,151.2,323.483Zm39.963-42.946V291.9h-13.3V280.537ZM170.932,291.9h-11.88q.036-5.625.144-11.359h11.736Zm27.152,0V280.537h2.7a3.462,3.462,0,1,0,0-6.923H159.353c.4-15.616,1.19-31.784,2.36-48.4.063-.582.451-4.193.872-8.506q1.972,3.328,4.141,6.776a12.56,12.56,0,0,0,1.385,11.117,92.77,92.77,0,0,0,9.487,11.957,12.553,12.553,0,0,0,8.421,3.979,243.735,243.735,0,0,0,33.609,34.288c.118,2.4.232,4.767.341,7.075Zm57.665,9.788a9.76,9.76,0,0,0-3.417,6.5l-1.24,12.29a4.783,4.783,0,0,1-4.774,4.316h-2.13l-2.891-30.18a18.57,18.57,0,0,1,4.6-14.067l.677-.761c4.21,6.119,8.523,13.3,12.056,19.465Zm26.016-7.887a96,96,0,0,1-8.728,7.621,4.012,4.012,0,0,1-3.259.758,3.856,3.856,0,0,1-2.628-1.926c-4.589-8.218-11.365-19.782-17.58-28.2a3.917,3.917,0,0,1-.723-2.952,3.848,3.848,0,0,1,1.557-2.547c1.852-1.337,3.881-2.656,6.03-3.92a4.858,4.858,0,0,1,6.016.8c5,5.257,14.259,15.4,20.02,24.264A4.867,4.867,0,0,1,281.765,293.8Zm23.393-34.3a163.623,163.623,0,0,1-20.793,18.852,224.068,224.068,0,0,0-15.324-18.024l2.327-3.272a11.36,11.36,0,0,0-.069-13.272c-7.889-10.869-21.2-23.846-21.76-24.394a3.714,3.714,0,0,0-3.792-.808,3.308,3.308,0,0,0-2.071,3.571c.585,7.177.9,16.36.939,27.293a3.461,3.461,0,0,0,3.461,3.45h.012a3.462,3.462,0,0,0,3.45-3.474c-.024-6.864-.157-13.056-.4-18.524A182.513,182.513,0,0,1,265.7,247.852a4.443,4.443,0,0,1,.031,5.191l-2.092,2.941a11.794,11.794,0,0,0-10.713.678c-2.333,1.374-4.543,2.811-6.569,4.273a10.817,10.817,0,0,0-3.687,12.818l-1.945,2.185a25.512,25.512,0,0,0-6.315,19.329l2.827,29.52h-5.488a3.523,3.523,0,0,1-3.532-3.383c-.941-22.621-3.376-77.609-5.667-99.608-2.175-20.883-3.178-53.328-3.513-66.563a268.542,268.542,0,0,0,25.754,11.436,154.537,154.537,0,0,0-2.9,19.435,3.462,3.462,0,1,0,6.9.593,152.4,152.4,0,0,1,2.076-15.144,462.8,462.8,0,0,1,55.583,74.085A11.634,11.634,0,0,1,305.158,259.5Z"/><path d="M244.808,196.674h-.04a3.461,3.461,0,0,0-3.423,3.5q.009.8.028,1.6a3.462,3.462,0,0,0,3.459,3.378h.085a3.462,3.462,0,0,0,3.378-3.544q-.018-.759-.027-1.511A3.461,3.461,0,0,0,244.808,196.674Z"/><path d="M182.294,235.358a7.919,7.919,0,0,0,6.059,2.815,7.671,7.671,0,0,0,4.5-1.441,41.616,41.616,0,0,0,3.627-2.945h0a7.861,7.861,0,0,0,1.257-10.137,33.314,33.314,0,0,0-2.207-2.911,7.863,7.863,0,0,0-10.517-1.368c-1.258.895-2.441,1.813-3.518,2.731a7.778,7.778,0,0,0-1.532,10.092A31.027,31.027,0,0,0,182.294,235.358Zm3.691-7.987c.923-.786,1.946-1.58,3.04-2.358a.839.839,0,0,1,.491-.155.937.937,0,0,1,.714.336,26.787,26.787,0,0,1,1.754,2.309.9.9,0,0,1-.157,1.156,34.661,34.661,0,0,1-3.022,2.455.912.912,0,0,1-1.212-.213,24.123,24.123,0,0,1-1.811-2.455A.846.846,0,0,1,185.985,227.371Z"/><path d="M196.234,310.508H180.315a3.462,3.462,0,0,0,0,6.923h4.5v10.818a3.462,3.462,0,1,0,6.923,0V317.431h4.5a3.462,3.462,0,1,0,0-6.923Z"/><path d="M171.416,94.277a3.457,3.457,0,0,0,1.095-.178l5.349-1.783a3.462,3.462,0,0,0-2.189-6.568l-5.349,1.783a3.462,3.462,0,0,0,1.094,6.746Z"/></svg>