<?xml version="1.0" ?><svg data-name="Layer 1" id="Layer_1" viewBox="0 0 64 64" xmlns="http://www.w3.org/2000/svg"><title/><desc/><path d="M53.76,43H27.07A14,14,0,0,1,13.24,31.15L11.52,20H8.06l3.22,20.91A6,6,0,0,0,17.21,46H50.76a6,6,0,0,0,5.46-3.55A6,6,0,0,1,53.76,43Z" style="fill:#cff09e"/><path d="M57.06,50h0a6,6,0,0,1-6,6h-42a2,2,0,0,0-2,2h0a2,2,0,0,0,2,2h42a10,10,0,0,0,10-10h0a2,2,0,0,0-2-2h0A2,2,0,0,0,57.06,50Z" style="fill:#a8dba8"/><rect height="10" style="fill:#a8dba8" width="4" x="21.06" y="46.02"/><rect height="10" style="fill:#a8dba8" width="4" x="41.06" y="46.02"/><path d="M19.56,40.82l-.1.89.72-.52C20,41.07,19.76,41,19.56,40.82Z" style="fill:#cff09e"/><path d="M34,39A20,20,0,0,0,14.06,20h-6l.31,2h4.69A20,20,0,0,1,33,41h14.8l1.25-2Z" style="fill:#cff09e"/><polygon points="58.06 30.02 50.06 30.02 49.81 32.02 57.81 32.02 58.06 30.02" style="fill:#cff09e"/><polygon points="22.46 33.52 25.46 31.32 25.06 35.02 28.46 36.52 25.06 38.02 25.46 41.72 22.46 39.52 19.46 41.72 19.86 38.02 16.46 36.52 19.86 35.02 19.46 31.32 22.46 33.52" style="fill:#79bd9a"/><path d="M36.06,21h-5v2.14A23.9,23.9,0,0,1,37.52,35h.54V23A2,2,0,0,0,36.06,21Z" style="fill:#cff09e"/><path d="M31.06,23.13V10a2,2,0,0,0-2-2h-12a2,2,0,0,0-2,2v6A23.86,23.86,0,0,1,31.06,23.13Z" style="fill:#79bd9a"/><path d="M25.06,18.72V8h-4v9.06A24.16,24.16,0,0,1,25.06,18.72Z" style="fill:#cff09e"/><path d="M37.52,35h4.54V32a1,1,0,0,0-1-1H36.29A23.47,23.47,0,0,1,37.52,35Z" style="fill:#79bd9a"/><path d="M59.06,47a3,3,0,0,0-3,3,5,5,0,0,1-5,5h-5V47h4.7a7,7,0,0,0,7-6.13L58.94,31h.12a3,3,0,0,0,3-3.44A3,3,0,0,0,59,25H48.3a3,3,0,0,0-3,2.63L44.52,34H43.06V31a1,1,0,0,0-1-1h-3V23A3,3,0,0,0,37,20.17l1.91-2.55a1,1,0,1,0-1.6-1.2l-1.33,1.77A3,3,0,0,0,33.06,16a3.05,3.05,0,0,0-1,.18V10a3,3,0,0,0-3-3H27.88a3.05,3.05,0,0,0,.18-1,3,3,0,0,0-5-2.22,3,3,0,0,0-5,2.22,2.82,2.82,0,0,0,.19,1H17.06a3,3,0,0,0-3,3v5h-9a3,3,0,0,0-2.27,1.05,2.92,2.92,0,0,0-.69,2.4,3,3,0,0,0,3,2.55H7.2l3.09,20.06A7,7,0,0,0,17.21,47h2.85v8h-11a3,3,0,0,0,0,6h42a11,11,0,0,0,11-11A3,3,0,0,0,59.06,47Zm-15,8h-2V47h2Zm-18,0V47h14v8Zm15-23v2h-2V32Zm-4-1.73a24.86,24.86,0,0,0-5-7.54V22h4a1,1,0,0,1,1,1ZM33.06,18a1,1,0,0,1,0,2h-1V19A1,1,0,0,1,33.06,18Zm-3-8V20.89a25.21,25.21,0,0,0-4-2.77V10.25l1.11,2.22a1,1,0,0,0,.89.55,1,1,0,0,0,.45-.11A1,1,0,0,0,29,11.57L27.68,9h1.38A1,1,0,0,1,30.06,10Zm-8-1h2v8.12c-.65-.29-1.32-.55-2-.78Zm3-4a1,1,0,0,1,0,2h-1V6A1,1,0,0,1,25.06,5Zm-5,1a1,1,0,0,1,2,0V7h-1A1,1,0,0,1,20.06,6Zm-4,4a1,1,0,0,1,1-1h1.38l-1.27,2.55a1,1,0,0,0,.44,1.34,1.06,1.06,0,0,0,.45.11,1,1,0,0,0,.9-.55l1.1-2.22v5.52a25.3,25.3,0,0,0-4-.67Zm-12,8.15a1,1,0,0,1,.23-.8A1,1,0,0,1,5.06,17h9a23,23,0,0,1,16.28,6.82.08.08,0,0,0,0,0,22.91,22.91,0,0,1,6.16,11.35.77.77,0,0,0,.07.16v0a1.27,1.27,0,0,0,.18.27l.05.05a1.19,1.19,0,0,0,.23.16l.09,0a.86.86,0,0,0,.36.08h7.88a1,1,0,0,0,1-.88l.9-7.25a1,1,0,0,1,1-.87H59a1,1,0,0,1,.83,1.65,1,1,0,0,1-.76.35H49.94a1,1,0,0,0-1,.87l-1,8.13h-13A21,21,0,0,0,14.06,19h-9A1,1,0,0,1,4.07,18.17Zm8.2,22.61L9.23,21h4.83A19,19,0,0,1,33,39.07a1,1,0,0,0,1,1h14.8a1,1,0,0,0,1-.88l1-8.12h6.11l-1.2,9.62a5,5,0,0,1-5,4.38H17.21A5,5,0,0,1,12.27,40.78ZM22.06,47h2v8h-2Zm29,12h-42a1,1,0,1,1,0-2h42a7,7,0,0,0,7-7,1,1,0,0,1,2,0A9,9,0,0,1,51.06,59Z" style="fill:#3b8686"/><path d="M24.87,42.52a1,1,0,0,0,.59.19,1,1,0,0,0,.5-.13,1,1,0,0,0,.5-1l-.33-3,2.74-1.21a1,1,0,0,0,0-1.83l-2.74-1.2.33-3a1,1,0,0,0-1.59-.91l-2.41,1.76-2.41-1.76A1,1,0,0,0,19,30.46a1,1,0,0,0-.49,1l.32,3-2.73,1.2a1,1,0,0,0,0,1.83l2.73,1.21-.32,3a1,1,0,0,0,1.58.91l2.41-1.76Zm-4.17-3,.16-1.44a1,1,0,0,0-.59-1l-1.33-.58,1.33-.59a1,1,0,0,0,.59-1l-.16-1.44,1.17.86a1,1,0,0,0,1.18,0l1.17-.86-.15,1.44a1,1,0,0,0,.59,1l1.32.59-1.32.58a1,1,0,0,0-.59,1l.15,1.44-1.17-.86a1,1,0,0,0-.59-.19,1,1,0,0,0-.59.19Z" style="fill:#3b8686"/><path d="M14.06,28a1,1,0,0,0,2,0V27h1a1,1,0,0,0,0-2h-1V24a1,1,0,1,0-2,0v1h-1a1,1,0,1,0,0,2h1Z" style="fill:#3b8686"/><circle cx="22.06" cy="27.02" r="1" style="fill:#3b8686"/><circle cx="31.06" cy="42.02" r="1" style="fill:#3b8686"/><circle cx="15.06" cy="41.02" r="1" style="fill:#3b8686"/><circle cx="53.06" cy="36.02" r="1" style="fill:#3b8686"/><circle cx="51.06" cy="42.02" r="1" style="fill:#3b8686"/></svg>