<?xml version="1.0" ?><svg viewBox="0 0 64 64" xmlns="http://www.w3.org/2000/svg"><defs><style>.cls-1{fill:#eee;}.cls-2,.cls-5{fill:none;}.cls-2,.cls-4,.cls-5{stroke:#4c241d;stroke-linejoin:round;stroke-width:2px;}.cls-2,.cls-4{stroke-linecap:round;}.cls-3{fill:#4c241d;}.cls-4{fill:#9dc1e4;}</style></defs><g id="eth"><circle class="cls-1" cx="31" cy="28" r="20"/><line class="cls-2" x1="45.5858" x2="48.4142" y1="53.5858" y2="56.4142"/><line class="cls-2" x1="48.4142" x2="45.5858" y1="53.5858" y2="56.4142"/><line class="cls-2" x1="19" x2="19" y1="12" y2="16"/><line class="cls-2" x1="17" x2="21" y1="14" y2="14"/><circle class="cls-3" cx="8.0044" cy="20.1126" r="1.0691"/><circle class="cls-3" cx="51.0044" cy="12.1126" r="1.0691"/><circle class="cls-3" cx="57.0044" cy="57.1126" r="1.0691"/><polygon class="cls-4" points="46 26 33 4 20 26 33 36 46 26"/><polygon class="cls-4" points="33 41 18 29 33 61 48 29 33 41"/><line class="cls-5" x1="33" x2="33" y1="5" y2="36"/><polyline class="cls-5" points="20 26 33 18 46 26"/><line class="cls-5" x1="33" x2="33" y1="60" y2="41"/><circle class="cls-2" cx="55" cy="46" r="2"/></g></svg>