<?xml version="1.0" encoding="iso-8859-1"?>
<!-- Generator: Adobe Illustrator 22.1.0, SVG Export Plug-In . SVG Version: 6.00 Build 0)  -->
<svg version="1.1" id="Layer_1" xmlns="http://www.w3.org/2000/svg" xmlns:xlink="http://www.w3.org/1999/xlink" x="0px" y="0px"
	 viewBox="0 0 100 100" style="enable-background:new 0 0 100 100;" xml:space="preserve">
<g>
	<path style="fill:#78CDD4;" d="M18,32c0,1.105,0.895,2,2,2s2-0.895,2-2V17c0-1.105-0.895-2-2-2s-2,0.895-2,2V32z"/>
	<path style="fill:#1F212B;" d="M20,86c-0.552,0-1-0.447-1-1V34c0-0.553,0.448-1,1-1s1,0.447,1,1v51C21,85.553,20.552,86,20,86z"/>
	<polygon style="fill:#F15B6C;" points="21.5,80.5 18.5,80.5 17.5,68.5 22.5,68.5 	"/>
	<path style="fill:#1F212B;" d="M21.5,81h-3c-0.26,0-0.477-0.199-0.498-0.458l-1-12c-0.012-0.14,0.036-0.277,0.13-0.381
		C17.227,68.059,17.36,68,17.5,68h5c0.14,0,0.273,0.059,0.368,0.161c0.094,0.104,0.142,0.241,0.13,0.381l-1,12
		C21.977,80.801,21.76,81,21.5,81z M18.96,80h2.08l0.917-11h-3.913L18.96,80z"/>
	<path style="fill:#1F212B;" d="M20,35c-1.654,0-3-1.346-3-3V17c0-1.654,1.346-3,3-3s3,1.346,3,3v15C23,33.654,21.654,35,20,35z
		 M20,16c-0.551,0-1,0.448-1,1v15c0,0.552,0.449,1,1,1s1-0.448,1-1V17C21,16.448,20.551,16,20,16z"/>
	<path style="fill:#1F212B;" d="M24.5,69h-9c-0.276,0-0.5-0.224-0.5-0.5s0.224-0.5,0.5-0.5h9c0.276,0,0.5,0.224,0.5,0.5
		S24.776,69,24.5,69z"/>
	<path style="fill:#1F212B;" d="M22.5,81h-5c-0.276,0-0.5-0.224-0.5-0.5s0.224-0.5,0.5-0.5h5c0.276,0,0.5,0.224,0.5,0.5
		S22.776,81,22.5,81z"/>
	<path style="fill:#1F212B;" d="M13.5,25c-0.668,0-1.296-0.26-1.768-0.732c-0.975-0.975-0.975-2.561,0-3.535
		c0.826-0.827,5.309-2.723,5.817-2.936c0.186-0.079,0.403-0.037,0.547,0.107c0.144,0.144,0.186,0.359,0.107,0.547
		c-0.213,0.509-2.109,4.989-2.936,5.816l0,0l0,0l0,0C14.795,24.74,14.168,25,13.5,25z M16.787,19.214
		c-1.782,0.784-3.926,1.805-4.347,2.226c-0.585,0.585-0.585,1.536,0,2.121c0.566,0.566,1.555,0.566,2.121,0l0,0
		C14.982,23.14,16.002,20.995,16.787,19.214z"/>
</g>
<g>
	<path style="fill:#78CDD4;" d="M82,32c0,1.105-0.895,2-2,2s-2-0.895-2-2V17c0-1.105,0.895-2,2-2s2,0.895,2,2V32z"/>
	<path style="fill:#1F212B;" d="M80,86c-0.552,0-1-0.447-1-1V34c0-0.553,0.448-1,1-1s1,0.447,1,1v51C81,85.553,80.552,86,80,86z"/>
	<polygon style="fill:#F15B6C;" points="78.5,80.5 81.5,80.5 82.5,68.5 77.5,68.5 	"/>
	<path style="fill:#1F212B;" d="M81.5,81h-3c-0.26,0-0.477-0.199-0.498-0.458l-1-12c-0.012-0.14,0.036-0.277,0.13-0.381
		C77.227,68.059,77.36,68,77.5,68h5c0.14,0,0.273,0.059,0.368,0.161c0.094,0.104,0.142,0.241,0.13,0.381l-1,12
		C81.977,80.801,81.76,81,81.5,81z M78.96,80h2.08l0.917-11h-3.913L78.96,80z"/>
	<path style="fill:#1F212B;" d="M80,35c-1.654,0-3-1.346-3-3V17c0-1.654,1.346-3,3-3s3,1.346,3,3v15C83,33.654,81.654,35,80,35z
		 M80,16c-0.551,0-1,0.448-1,1v15c0,0.552,0.449,1,1,1s1-0.448,1-1V17C81,16.448,80.551,16,80,16z"/>
	<path style="fill:#1F212B;" d="M84.5,69h-9c-0.276,0-0.5-0.224-0.5-0.5s0.224-0.5,0.5-0.5h9c0.276,0,0.5,0.224,0.5,0.5
		S84.776,69,84.5,69z"/>
	<path style="fill:#1F212B;" d="M82.5,81h-5c-0.276,0-0.5-0.224-0.5-0.5s0.224-0.5,0.5-0.5h5c0.276,0,0.5,0.224,0.5,0.5
		S82.776,81,82.5,81z"/>
	<path style="fill:#1F212B;" d="M86.5,25c-0.668,0-1.295-0.26-1.768-0.732l0,0l0,0c-0.827-0.827-2.723-5.308-2.936-5.816
		c-0.079-0.188-0.036-0.403,0.107-0.547c0.144-0.145,0.359-0.186,0.547-0.107c0.508,0.213,4.991,2.108,5.817,2.936
		c0.975,0.975,0.975,2.561,0,3.535C87.796,24.74,87.168,25,86.5,25z M83.213,19.214c0.785,1.781,1.805,3.926,2.226,4.347l0,0
		c0.566,0.566,1.555,0.566,2.121,0c0.585-0.585,0.585-1.536,0-2.121C87.139,21.019,84.995,19.998,83.213,19.214z"/>
</g>
<g>
	<path style="fill:#78CDD4;" d="M68,25.5c0-3.59-4-10.5-6.5-10.5S55,21.91,55,25.5c0,1.75,0.981,9.874,1,24
		c0.019,14.612-1,27.25-1,29c0,3.59,2.91,6.5,6.5,6.5c3.59,0,6.5-2.91,6.5-6.5c0-1.75-1.019-14.388-1-29
		C67.019,35.374,68,27.25,68,25.5z"/>
	<path style="fill:#1F212B;" d="M61.5,86c-4.136,0-7.5-3.364-7.5-7.5c0-0.475,0.066-1.627,0.167-3.37
		c0.296-5.162,0.848-14.771,0.833-25.629c-0.014-10.387-0.545-17.45-0.83-21.244C54.068,26.896,54,25.996,54,25.5
		c0-3.801,4.125-11.5,7.5-11.5S69,21.699,69,25.5c0,0.496-0.068,1.396-0.17,2.757c-0.285,3.794-0.816,10.857-0.83,21.244
		c-0.015,10.857,0.537,20.467,0.833,25.629C68.934,76.873,69,78.025,69,78.5C69,82.636,65.636,86,61.5,86z M61.5,16
		c-1.644,0-5.5,6.135-5.5,9.5c0,0.421,0.069,1.338,0.165,2.607c0.287,3.819,0.822,10.93,0.835,21.392
		c0.015,10.916-0.54,20.563-0.837,25.745C56.068,76.892,56,78.083,56,78.5c0,3.032,2.467,5.5,5.5,5.5c3.033,0,5.5-2.468,5.5-5.5
		c0-0.417-0.068-1.608-0.163-3.256C66.54,70.062,65.985,60.415,66,49.499c0.014-10.462,0.548-17.572,0.835-21.392
		C66.931,26.838,67,25.921,67,25.5C67,22.135,63.144,16,61.5,16z"/>
	<path style="fill:#F15B6C;" d="M68.5,52.5h-14v-4c0-1.657,1.343-3,3-3h8c1.657,0,3,1.343,3,3V52.5z"/>
	<path style="fill:#1F212B;" d="M68.5,53h-14c-0.276,0-0.5-0.224-0.5-0.5v-4c0-1.93,1.57-3.5,3.5-3.5h8c1.93,0,3.5,1.57,3.5,3.5v4
		C69,52.776,68.776,53,68.5,53z M55,52h13v-3.5c0-1.379-1.122-2.5-2.5-2.5h-8c-1.378,0-2.5,1.121-2.5,2.5V52z"/>
	<polygon style="fill:#F15B6C;" points="58.5,60.5 64.5,60.5 62.5,67.5 60.5,67.5 	"/>
	<path style="fill:#1F212B;" d="M62.5,68h-2c-0.223,0-0.419-0.148-0.481-0.362l-2-7c-0.043-0.151-0.013-0.313,0.082-0.438
		c0.094-0.127,0.242-0.2,0.399-0.2h6c0.157,0,0.305,0.073,0.399,0.199c0.094,0.125,0.125,0.287,0.082,0.438l-2,7
		C62.919,67.852,62.723,68,62.5,68z M60.877,67h1.246l1.714-6h-4.674L60.877,67z"/>
	<path style="fill:#1F212B;" d="M70.5,60c-0.276,0-0.5-0.224-0.5-0.5V51h-1.5c-0.276,0-0.5-0.224-0.5-0.5s0.224-0.5,0.5-0.5h2
		c0.276,0,0.5,0.224,0.5,0.5v9C71,59.776,70.776,60,70.5,60z"/>
	<path style="fill:#1F212B;" d="M52.5,60c-0.276,0-0.5-0.224-0.5-0.5v-9c0-0.276,0.224-0.5,0.5-0.5h2c0.276,0,0.5,0.224,0.5,0.5
		S54.776,51,54.5,51H53v8.5C53,59.776,52.776,60,52.5,60z"/>
	<path style="fill:#1F212B;" d="M55.5,59h-3c-0.276,0-0.5-0.224-0.5-0.5s0.224-0.5,0.5-0.5h3c0.276,0,0.5,0.224,0.5,0.5
		S55.776,59,55.5,59z"/>
	<path style="fill:#1F212B;" d="M70.5,59h-3c-0.276,0-0.5-0.224-0.5-0.5s0.224-0.5,0.5-0.5h3c0.276,0,0.5,0.224,0.5,0.5
		S70.776,59,70.5,59z"/>
	<path style="fill:#1F212B;" d="M61.5,46c-0.276,0-0.5-0.224-0.5-0.5v-20c0-0.276,0.224-0.5,0.5-0.5s0.5,0.224,0.5,0.5v20
		C62,45.776,61.776,46,61.5,46z"/>
	<path style="fill:#1F212B;" d="M61.5,23c-0.276,0-0.5-0.224-0.5-0.5v-3c0-0.276,0.224-0.5,0.5-0.5s0.5,0.224,0.5,0.5v3
		C62,22.776,61.776,23,61.5,23z"/>
	<path style="fill:#1F212B;" d="M61.5,82c-1.93,0-3.5-1.57-3.5-3.5c0-0.276,0.224-0.5,0.5-0.5s0.5,0.224,0.5,0.5
		c0,1.379,1.122,2.5,2.5,2.5s2.5-1.121,2.5-2.5c0-0.276,0.224-0.5,0.5-0.5s0.5,0.224,0.5,0.5C65,80.43,63.43,82,61.5,82z"/>
</g>
<g>
	<path style="fill:#78CDD4;" d="M45,25.5c0-3.59-4-10.5-6.5-10.5S32,21.91,32,25.5c0,1.75,0.981,9.874,1,24
		c0.019,14.612-1,27.25-1,29c0,3.59,2.91,6.5,6.5,6.5s6.5-2.91,6.5-6.5c0-1.75-1.019-14.388-1-29C44.019,35.374,45,27.25,45,25.5z"
		/>
	<path style="fill:#1F212B;" d="M38.5,86c-4.136,0-7.5-3.364-7.5-7.5c0-0.475,0.066-1.627,0.167-3.37
		c0.296-5.162,0.848-14.771,0.833-25.629c-0.014-10.387-0.545-17.45-0.83-21.244C31.068,26.896,31,25.996,31,25.5
		c0-3.801,4.125-11.5,7.5-11.5S46,21.699,46,25.5c0,0.496-0.068,1.396-0.17,2.757c-0.285,3.794-0.816,10.857-0.83,21.244
		c-0.015,10.857,0.537,20.467,0.833,25.629C45.934,76.873,46,78.025,46,78.5C46,82.636,42.636,86,38.5,86z M38.5,16
		c-1.644,0-5.5,6.135-5.5,9.5c0,0.421,0.069,1.338,0.165,2.607c0.287,3.819,0.822,10.93,0.835,21.392
		c0.015,10.916-0.54,20.563-0.837,25.745C33.068,76.892,33,78.083,33,78.5c0,3.032,2.467,5.5,5.5,5.5s5.5-2.468,5.5-5.5
		c0-0.417-0.068-1.608-0.163-3.256C43.54,70.062,42.985,60.415,43,49.499c0.014-10.462,0.548-17.572,0.835-21.392
		C43.931,26.838,44,25.921,44,25.5C44,22.135,40.144,16,38.5,16z"/>
	<path style="fill:#F15B6C;" d="M45.5,52.5h-14v-4c0-1.657,1.343-3,3-3h8c1.657,0,3,1.343,3,3V52.5z"/>
	<path style="fill:#1F212B;" d="M45.5,53h-14c-0.276,0-0.5-0.224-0.5-0.5v-4c0-1.93,1.57-3.5,3.5-3.5h8c1.93,0,3.5,1.57,3.5,3.5v4
		C46,52.776,45.776,53,45.5,53z M32,52h13v-3.5c0-1.379-1.122-2.5-2.5-2.5h-8c-1.378,0-2.5,1.121-2.5,2.5V52z"/>
	<polygon style="fill:#F15B6C;" points="35.5,60.5 41.5,60.5 39.5,67.5 37.5,67.5 	"/>
	<path style="fill:#1F212B;" d="M39.5,68h-2c-0.223,0-0.419-0.148-0.481-0.362l-2-7c-0.043-0.151-0.013-0.313,0.082-0.438
		c0.094-0.127,0.242-0.2,0.399-0.2h6c0.157,0,0.305,0.073,0.399,0.199c0.094,0.125,0.125,0.287,0.082,0.438l-2,7
		C39.919,67.852,39.723,68,39.5,68z M37.877,67h1.246l1.714-6h-4.674L37.877,67z"/>
	<path style="fill:#1F212B;" d="M47.5,60c-0.276,0-0.5-0.224-0.5-0.5V51h-1.5c-0.276,0-0.5-0.224-0.5-0.5s0.224-0.5,0.5-0.5h2
		c0.276,0,0.5,0.224,0.5,0.5v9C48,59.776,47.776,60,47.5,60z"/>
	<path style="fill:#1F212B;" d="M29.5,60c-0.276,0-0.5-0.224-0.5-0.5v-9c0-0.276,0.224-0.5,0.5-0.5h2c0.276,0,0.5,0.224,0.5,0.5
		S31.776,51,31.5,51H30v8.5C30,59.776,29.776,60,29.5,60z"/>
	<path style="fill:#1F212B;" d="M32.5,59h-3c-0.276,0-0.5-0.224-0.5-0.5s0.224-0.5,0.5-0.5h3c0.276,0,0.5,0.224,0.5,0.5
		S32.776,59,32.5,59z"/>
	<path style="fill:#1F212B;" d="M47.5,59h-3c-0.276,0-0.5-0.224-0.5-0.5s0.224-0.5,0.5-0.5h3c0.276,0,0.5,0.224,0.5,0.5
		S47.776,59,47.5,59z"/>
	<path style="fill:#1F212B;" d="M38.5,82c-1.93,0-3.5-1.57-3.5-3.5c0-0.276,0.224-0.5,0.5-0.5s0.5,0.224,0.5,0.5
		c0,1.379,1.122,2.5,2.5,2.5s2.5-1.121,2.5-2.5c0-0.276,0.224-0.5,0.5-0.5s0.5,0.224,0.5,0.5C42,80.43,40.43,82,38.5,82z"/>
</g>
</svg>
